<svg width="33" height="33" viewBox="0 0 33 33" fill="none" xmlns="http://www.w3.org/2000/svg">
<circle cx="16.5" cy="16.5" r="16.5" fill="#00C010"/>
<path d="M13.1593 13.9584C12.1577 14.7943 11.7907 16.3187 12.6555 17.5416C13.4648 18.686 14.4843 19.687 15.6492 20.4815C16.8944 21.3307 18.4465 20.9702 19.2975 19.9864L19.3069 19.9907C20.3939 20.4852 21.5483 20.8242 22.7333 20.9969V23.4167L22.7323 23.4166L22.7297 23.4167C15.2867 23.427 9.6587 17.8352 9.66666 10.5866V10.5833H12.1301L12.1302 10.5844C12.3061 11.7481 12.6511 12.881 13.1546 13.9485L13.1593 13.9584ZM22.7323 25.25H23.6667C24.1821 25.25 24.6 24.8396 24.6 24.3333V20.2062C24.6 19.752 24.2612 19.3662 23.8037 19.2995L23.0064 19.1833C21.9981 19.0363 21.0165 18.748 20.0915 18.3272L19.3889 18.0075C18.9817 17.8223 18.4979 17.9478 18.2371 18.3065L17.919 18.7439C17.6402 19.1272 17.1079 19.2443 16.7139 18.9756C15.7318 18.3058 14.871 17.4606 14.1887 16.4957C13.915 16.1088 14.0342 15.5859 14.4246 15.3121L14.8698 14.9999C15.235 14.7437 15.3629 14.2685 15.1742 13.8686L14.8484 13.1778C14.4199 12.2694 14.1263 11.3054 13.9767 10.3152L13.8583 9.53206C13.7904 9.08271 13.3976 8.75 12.9351 8.75H8.73333C8.21786 8.75 7.8 9.16041 7.8 9.66667V10.5846C7.79093 18.8405 14.2495 25.2618 22.7323 25.25Z" fill="white"/>
</svg>
