<svg width="35" height="35" viewBox="0 0 35 35" fill="none" xmlns="http://www.w3.org/2000/svg">
<rect width="35" height="35" rx="10" fill="#FFBB00"/>
<path fill-rule="evenodd" clip-rule="evenodd" d="M15.3736 7.14729C16.7879 5.61757 19.2121 5.61757 20.6264 7.14729L27.055 14.1004C27.6629 14.7574 28 15.6187 28 16.5121V23.8645C28 25.044 27.0407 26 25.8571 26H10.1429C8.95929 26 8 25.044 8 23.8645V16.5121C8 15.6187 8.33714 14.7574 8.945 14.1004L15.3736 7.14729ZM15.8571 24.5763H20.1429V18.1699H15.8571V24.5763ZM14.4286 24.5763H10.1429C9.74857 24.5763 9.42857 24.2575 9.42857 23.8645V16.5121C9.42857 15.9761 9.63072 15.4593 9.99572 15.0649L16.4243 8.1118C17.2729 7.19425 18.7271 7.19425 19.5757 8.1118L26.0043 15.0649C26.3693 15.4593 26.5714 15.9761 26.5714 16.5121V23.8645C26.5714 24.2575 26.2514 24.5763 25.8571 24.5763H21.5714V18.1699C21.5714 17.3833 20.9321 16.7463 20.1429 16.7463H15.8571C15.0679 16.7463 14.4286 17.3833 14.4286 18.1699V24.5763Z" fill="white"/>
</svg>
