<svg width="30" height="30" viewBox="0 0 30 30" fill="none" xmlns="http://www.w3.org/2000/svg">
<path d="M15 27.5C8.09644 27.5 2.5 21.9036 2.5 15C2.5 8.09644 8.09644 2.5 15 2.5C21.9036 2.5 27.5 8.09644 27.5 15C27.4924 21.9004 21.9004 27.4924 15 27.5ZM13.75 21.25V23.75H16.25V21.25H13.75ZM15 8.75C16.3807 8.75 17.5 9.86929 17.5 11.25C17.5044 11.9134 17.2381 12.5499 16.7625 13.0125L15.2125 14.5875C14.2768 15.5271 13.751 16.7989 13.75 18.125V18.75H16.25C16.1529 17.4063 16.6948 16.0953 17.7125 15.2125L18.8375 14.0625C19.5851 13.3179 20.0037 12.3051 20 11.25C20 8.48858 17.7614 6.25 15 6.25C12.2386 6.25 10 8.48858 10 11.25H12.5C12.5 9.86929 13.6193 8.75 15 8.75Z" fill="#232323"/>
</svg>
