<svg width="30" height="30" viewBox="0 0 30 30" fill="none" xmlns="http://www.w3.org/2000/svg">
<path d="M18.4625 24.6875H11.575C11.025 24.6875 10.325 24.625 9.86252 24.15C9.41252 23.6875 9.42502 23.1125 9.43752 22.725V21.6125C6.28752 19.5125 4.21252 15.8625 4.21252 12.3875C4.21252 9.1 5.68752 6.025 8.25002 3.9625C10.8125 1.9 14.175 1.125 17.4625 1.85C20.5875 2.5375 23.2875 4.625 24.6875 7.4375C27.4 12.9 24.7875 18.8125 20.6125 21.625V22.5625C20.625 22.925 20.6375 23.5875 20.125 24.1125C19.7375 24.4875 19.1875 24.6875 18.4625 24.6875ZM11.3 22.8C11.3625 22.8 11.45 22.8125 11.5625 22.8125H18.4625C18.5875 22.8125 18.675 22.8 18.725 22.7875C18.725 22.75 18.725 22.7 18.725 22.6625V21.0875C18.725 20.7625 18.9 20.45 19.175 20.2875C22.875 18.05 25.325 12.9375 22.9875 8.25C21.8375 5.9375 19.6125 4.225 17.0375 3.6625C14.3125 3.0625 11.525 3.7 9.40002 5.4125C7.27502 7.125 6.06252 9.6625 6.06252 12.3875C6.06252 15.8625 8.46252 18.8625 10.8375 20.3C11.125 20.475 11.2875 20.775 11.2875 21.1V22.7875C11.3 22.7875 11.3 22.7875 11.3 22.8Z" fill="#232323"/>
<path d="M19.375 28.4375C19.2875 28.4375 19.2 28.425 19.1125 28.4C16.4125 27.625 13.575 27.625 10.875 28.4C10.375 28.5375 9.86251 28.25 9.71251 27.75C9.56251 27.25 9.86251 26.7375 10.3625 26.5875C13.3875 25.725 16.6 25.725 19.625 26.5875C20.125 26.725 20.4125 27.25 20.275 27.75C20.1625 28.175 19.7875 28.4375 19.375 28.4375Z" fill="#232323"/>
</svg>
