<svg width="30" height="30" viewBox="0 0 30 30" fill="none" xmlns="http://www.w3.org/2000/svg">
<path d="M20 28.4375H3.75C2.55 28.4375 1.5625 27.45 1.5625 26.25V10C1.5625 4.475 4.475 1.5625 10 1.5625H20C25.525 1.5625 28.4375 4.475 28.4375 10V20C28.4375 25.525 25.525 28.4375 20 28.4375ZM10 3.4375C5.525 3.4375 3.4375 5.525 3.4375 10V26.25C3.4375 26.425 3.575 26.5625 3.75 26.5625H20C24.475 26.5625 26.5625 24.475 26.5625 20V10C26.5625 5.525 24.475 3.4375 20 3.4375H10Z" fill="white"/>
<path d="M9.93718 22.1875C9.34968 22.1875 8.81218 21.975 8.41218 21.5875C7.93718 21.1125 7.72465 20.4375 7.83715 19.7125L8.18715 17.2375C8.26215 16.7 8.59967 16.0125 8.98717 15.625L15.4747 9.13751C17.6997 6.91251 19.6372 7.91251 20.8622 9.13751C21.8247 10.1 22.2622 11.1125 22.1622 12.125C22.0872 12.95 21.6497 13.725 20.8622 14.525L14.3747 21.0125C13.9872 21.4 13.3122 21.7375 12.7622 21.825L10.2872 22.175C10.1747 22.175 10.0497 22.1875 9.93718 22.1875ZM18.1622 9.6875C17.6997 9.6875 17.2872 9.9875 16.8122 10.45L10.3247 16.9375C10.2247 17.0375 10.0747 17.35 10.0497 17.4875L9.69968 19.9625C9.68718 20.0875 9.69965 20.2 9.74965 20.25C9.79965 20.3 9.91217 20.3125 10.0372 20.3L12.5122 19.95C12.6622 19.925 12.9622 19.775 13.0622 19.675L19.5497 13.1875C20.0247 12.7125 20.2747 12.3 20.3122 11.925C20.3497 11.5 20.0997 11 19.5497 10.45C18.9997 9.925 18.5622 9.6875 18.1622 9.6875Z" fill="white"/>
<path d="M19.2748 15.725C19.1873 15.725 19.0998 15.7125 19.0248 15.6875C16.7623 15.05 14.9498 13.25 14.3123 10.975C14.1748 10.475 14.4623 9.96246 14.9623 9.81246C15.4623 9.67496 15.9748 9.96246 16.1123 10.4625C16.5748 12.1 17.8873 13.4125 19.5248 13.875C20.0248 14.0125 20.3123 14.5375 20.1748 15.0375C20.0623 15.45 19.6873 15.725 19.2748 15.725Z" fill="white"/>
</svg>
