<svg width="30" height="30" viewBox="0 0 30 30" fill="none" xmlns="http://www.w3.org/2000/svg">
<path d="M21.125 23.7625C20.7375 23.7625 20.35 23.6499 20.0125 23.4249L18.8125 22.6374C18.475 22.4124 18.3125 21.9875 18.425 21.6C18.5125 21.3125 18.55 20.9749 18.55 20.5999V15.5124C18.55 13.4749 17.275 12.2 15.2375 12.2H6.74999C6.59999 12.2 6.4625 12.2125 6.325 12.225C6.0625 12.2375 5.81251 12.15 5.61251 11.975C5.41251 11.8 5.3125 11.55 5.3125 11.2875V7.82495C5.3125 4.14995 7.8875 1.57495 11.5625 1.57495H22.1875C25.8625 1.57495 28.4375 4.14995 28.4375 7.82495V14.1999C28.4375 16.0124 27.825 17.6124 26.7 18.7124C25.8 19.6249 24.55 20.2124 23.125 20.3874V21.7749C23.125 22.5249 22.7125 23.2 22.0625 23.55C21.7625 23.6875 21.4375 23.7625 21.125 23.7625ZM20.375 21.4124L21.1875 21.8749C21.2625 21.8374 21.2625 21.7749 21.2625 21.7624V19.4999C21.2625 18.9874 21.6875 18.5624 22.2 18.5624C23.5125 18.5624 24.625 18.15 25.3875 17.375C26.175 16.6 26.575 15.4999 26.575 14.1874V7.81244C26.575 5.14994 24.8625 3.43744 22.2 3.43744H11.575C8.91249 3.43744 7.19999 5.14994 7.19999 7.81244V10.3124H15.25C18.3 10.3124 20.4375 12.45 20.4375 15.5V20.5874C20.425 20.8749 20.4125 21.1499 20.375 21.4124Z" fill="#292D32"/>
<path d="M7.58751 28.4375C7.31251 28.4375 7.025 28.375 6.7625 28.2375C6.175 27.925 5.81249 27.325 5.81249 26.65V25.7C4.71249 25.525 3.7375 25.0625 3.0125 24.3375C2.0625 23.3875 1.5625 22.0875 1.5625 20.5875V15.5C1.5625 12.675 3.41249 10.6 6.16249 10.3375C6.36249 10.325 6.54999 10.3125 6.74999 10.3125H15.2375C18.2875 10.3125 20.425 12.45 20.425 15.5V20.5875C20.425 21.1375 20.3625 21.65 20.225 22.1125C19.6625 24.3625 17.75 25.775 15.2375 25.775H12.125L8.58749 28.125C8.28749 28.3375 7.93751 28.4375 7.58751 28.4375ZM6.74999 12.1875C6.59999 12.1875 6.4625 12.2 6.325 12.2125C4.525 12.375 3.4375 13.6125 3.4375 15.5V20.5875C3.4375 21.5875 3.75 22.425 4.3375 23.0125C4.9125 23.5875 5.74999 23.9 6.74999 23.9C7.26249 23.9 7.68749 24.325 7.68749 24.8375V26.475L11.3125 24.0625C11.4625 23.9625 11.65 23.9 11.8375 23.9H15.2375C16.8875 23.9 18.05 23.075 18.4125 21.625C18.5 21.3125 18.55 20.9625 18.55 20.5875V15.5C18.55 13.4625 17.275 12.1875 15.2375 12.1875H6.74999Z" fill="#292D32"/>
</svg>
