<svg width="30" height="31" viewBox="0 0 30 31" fill="none" xmlns="http://www.w3.org/2000/svg">
<path d="M8.75 10.1818C8.75 6.66727 11.5482 3.81818 15 3.81818C18.4518 3.81818 21.25 6.66727 21.25 10.1818C21.25 13.6964 18.4518 16.5454 15 16.5454C11.5482 16.5454 8.75 13.6964 8.75 10.1818ZM15 14C17.0711 14 18.75 12.2905 18.75 10.1818C18.75 8.07309 17.0711 6.36363 15 6.36363C12.9289 6.36363 11.25 8.07309 11.25 10.1818C11.25 12.2905 12.9289 14 15 14Z" fill="#2E3A59"/>
<path d="M7.92893 20.8004C6.05357 22.7098 5 25.2996 5 28H7.5C7.5 25.9747 8.29018 24.0324 9.6967 22.6003C11.1032 21.1682 13.0109 20.3636 15 20.3636C16.9891 20.3636 18.8968 21.1682 20.3033 22.6003C21.7098 24.0324 22.5 25.9747 22.5 28H25C25 25.2996 23.9464 22.7098 22.0711 20.8004C20.1957 18.8909 17.6522 17.8182 15 17.8182C12.3478 17.8182 9.8043 18.8909 7.92893 20.8004Z" fill="#2E3A59"/>
</svg>
